HIERARCHY
ROOT Hips
{
	OFFSET 0.00000 0.00000 0.00000
	CHANNELS 6 Xposition Yposition Zposition Zrotation Yrotation Xrotation 
	JOINT RightUpLegDummy
	{
		OFFSET 0 0 0
		CHANNELS 3 Zrotation Yrotation Xrotation
		JOINT RightUpLeg
		{
			OFFSET -3.52197 -3.41223 0.04002
			CHANNELS 3 Zrotation Yrotation Xrotation
			JOINT RightLeg
			{
				OFFSET 0.00006 -17.42390 1.60435
				CHANNELS 3 Zrotation Yrotation Xrotation
				JOINT RightFoot
				{
					OFFSET 0.06154 -16.50078 -1.63900
					CHANNELS 3 Zrotation Yrotation Xrotation
					JOINT RightToes
					{
						OFFSET 0.00298 -1.73825 3.34613
						CHANNELS 3 Zrotation Yrotation Xrotation
						End Site
						{
							OFFSET 0.00480 -0.05416 3.85043
						}
					}
				}
			}
		}
	}
	JOINT SpineDummy
	{
		OFFSET 0 0 0
		CHANNELS 3 Zrotation Yrotation Xrotation
		JOINT Spine
		{
			OFFSET 0.00000 4.68130 0.00000
			CHANNELS 3 Zrotation Yrotation Xrotation
			JOINT Spine1
			{
				OFFSET -0.00000 10.10138 0.05002
				CHANNELS 3 Zrotation Yrotation Xrotation
				JOINT HEadDummy
				{
					OFFSET 0 0 0
					CHANNELS 3 Zrotation Yrotation Xrotation
					JOINT Head
					{
						OFFSET -0.00000 3.43865 0.00438
						CHANNELS 3 Zrotation Yrotation Xrotation
						End Site
						{
							OFFSET -0.11417 5.02924 0.98962
						}
					}
				}
				JOINT LeftShoulder1Dummy
				{
					OFFSET 0 0 0
					CHANNELS 3 Zrotation Yrotation Xrotation
					JOINT LeftShoulder1
					{
						OFFSET 3.53937 -0.14262 -0.08662
						CHANNELS 3 Zrotation Yrotation Xrotation
						JOINT LeftArm
						{
							OFFSET 4.04833 -0.00133 0.12681
							CHANNELS 3 Zrotation Yrotation Xrotation
							JOINT LeftForeArm
							{
								OFFSET 10.33880 -0.01036 -0.55515
								CHANNELS 3 Zrotation Yrotation Xrotation
								JOINT LeftHand
								{
									OFFSET 8.69677 0.07543 0.40060
									CHANNELS 3 Zrotation Yrotation Xrotation
									End Site
									{
										OFFSET 5.28377 -0.21905 0.59205
									}
								}
							}
						}
					}
				}
				JOINT RightShoulderDummy
				{
					OFFSET 0 0 0
					CHANNELS 3 Zrotation Yrotation Xrotation
					JOINT RightShoulder
					{
						OFFSET -3.53937 -0.14262 -0.08660
						CHANNELS 3 Zrotation Yrotation Xrotation
						JOINT RightArm
						{
							OFFSET -4.04833 -0.00133 0.12683
							CHANNELS 3 Zrotation Yrotation Xrotation
							JOINT RightForeArm
							{
								OFFSET -10.37987 -0.01039 -0.55511
								CHANNELS 3 Zrotation Yrotation Xrotation
								JOINT RightHand
								{
									OFFSET -8.67398 0.07538 0.40058
									CHANNELS 3 Zrotation Yrotation Xrotation
									End Site
									{
										OFFSET -5.24810 -0.21916 0.59204
									}
								}
							}
						}
					}
				}
			}
		}
	}
	JOINT LeftUpLegDummy
	{
		OFFSET 0 0 0
		CHANNELS 3 Zrotation Yrotation Xrotation
		JOINT LeftUpLeg
		{
			OFFSET 3.52197 -3.41223 0.04002
			CHANNELS 3 Zrotation Yrotation Xrotation
			JOINT LeftLeg
			{
				OFFSET -0.00012 -17.42399 1.60337
				CHANNELS 3 Zrotation Yrotation Xrotation
				JOINT LeftFoot
				{
					OFFSET -0.09972 -16.50070 -1.63802
					CHANNELS 3 Zrotation Yrotation Xrotation
					JOINT LeftToes
					{
						OFFSET -0.01575 -1.73823 3.34611
						CHANNELS 3 Zrotation Yrotation Xrotation
						End Site
						{
							OFFSET 0.03150 -0.01868 3.85031
						}
					}
				}
			}
		}
	}
}
MOTION
Frames: 17
Frame Time: 0.033333
-79.8905 39.6642 -2.7763 -4.1411 80.5292 -3.0443 0.0000 0.0000 0.0000 -1.6770 -6.9103 10.8938 1.5242 10.3667 13.9325 4.1125 0.1031 -15.8580 0.0000 0.0000 -0.0000 0.0000 0.0000 0.0000 7.1173 3.9211 -6.1403 -2.4658 4.9078 17.7522 0.0000 0.0000 0.0000 -0.5042 -0.2076 -6.5204 0.0000 0.0000 0.0000 -18.1277 -3.6283 1.7627 -62.6580 3.4002 -19.3914 -13.9650 5.0368 44.9842 14.8197 -2.5197 -0.9902 0.0000 0.0000 0.0000 20.8250 -0.0519 0.9415 53.5953 33.0502 26.5433 1.5404 22.6412 -2.5439 -7.6381 2.3910 -0.4912 0.0000 0.0000 0.0000 1.4263 -1.4386 -22.7020 -1.3081 13.3537 -4.4761 -6.0994 0.7835 4.0497 0.0000 0.0000 0.0000
-78.4236 39.5446 -2.7385 -3.2967 80.6034 -2.0861 0.0000 0.0000 0.0000 -2.2445 -6.7887 12.9212 1.1554 10.4367 14.1886 5.6294 0.1045 -14.5857 0.0000 0.0000 -0.0000 0.0000 0.0000 0.0000 7.0475 3.8293 -7.3989 -3.4164 5.1070 18.2754 0.0000 0.0000 0.0000 -1.2828 -0.2273 -6.9041 0.0000 0.0000 0.0000 -18.2722 -3.6687 1.7823 -62.2906 4.7176 -19.6630 -14.1243 5.1129 45.0458 14.4125 -2.6106 -0.9727 0.0000 0.0000 0.0000 21.3032 0.4038 1.0821 53.3643 33.0386 27.4387 1.0280 23.3203 -2.3577 -7.7711 3.1978 -0.5480 0.0000 0.0000 0.0000 1.0902 -1.2125 -22.0663 -2.1815 15.2509 -6.1543 -8.1736 0.9562 1.9922 0.0000 0.0000 0.0000
-76.5010 39.4537 -2.6500 1.3431 81.2622 2.7552 0.0000 0.0000 0.0000 -2.6915 -5.0291 15.5547 -0.0324 8.2465 14.1728 8.5887 0.0041 -12.0319 0.0000 0.0000 -0.0000 0.0000 0.0000 0.0000 4.6087 3.7541 -9.2683 -2.8502 4.9702 19.5397 0.0000 0.0000 0.0000 -0.0485 -0.1305 -5.4589 0.0000 0.0000 0.0000 -18.8852 -3.7366 1.8404 -61.7010 5.5337 -20.3406 -14.0185 5.1088 45.4549 13.9725 -2.6129 -0.9425 0.0000 0.0000 0.0000 21.1030 0.2738 1.0393 53.8435 32.0419 27.8030 0.7420 24.1289 -2.7969 -8.0268 3.1259 -0.5623 0.0000 0.0000 0.0000 -0.2024 -1.3759 -20.5489 -2.9365 16.7740 -6.3275 -5.0924 0.6822 5.6727 0.0000 0.0000 0.0000
-74.5886 39.3880 -2.5070 12.4375 82.4408 14.0249 0.0000 0.0000 0.0000 -2.8476 -1.1136 16.8980 -0.9466 2.4838 16.1817 12.7559 -0.4113 -8.0097 0.0000 0.0000 -0.0000 0.0000 0.0000 0.0000 0.1632 3.3333 -10.8406 -1.1120 4.1658 20.3669 0.0000 0.0000 0.0000 1.4731 -0.0430 -3.6992 0.0000 0.0000 0.0000 -19.7064 -3.7556 1.9003 -60.8850 5.6501 -21.5053 -13.5125 5.1618 45.4651 13.4545 -2.1607 -0.8573 0.0000 0.0000 0.0000 20.5617 0.4584 1.0698 54.8213 29.5294 26.7924 0.7424 24.6983 -3.2013 -7.9764 2.6240 -0.5282 0.0000 0.0000 0.0000 -2.1925 -2.1808 -19.1922 -3.0851 16.5665 -4.8933 0.5058 -0.1612 12.2678 0.0000 0.0000 0.0000
-72.7899 39.3728 -2.3424 34.5936 83.3768 36.1476 0.0000 0.0000 0.0000 -4.2476 0.7771 15.5080 -1.5591 -2.8351 22.8100 15.9774 -1.5597 -0.2845 0.0000 0.0000 -0.0000 0.0000 0.0000 0.0000 -5.1439 2.4411 -10.5953 0.2620 2.9920 19.5035 0.0000 0.0000 0.0000 1.3578 -0.0118 -3.4558 0.0000 0.0000 0.0000 -20.1250 -3.3349 1.8174 -59.8214 4.4917 -22.7459 -12.6122 5.1740 45.4607 13.0542 -1.6362 -0.7755 0.0000 0.0000 0.0000 20.4568 1.0310 1.2200 56.0410 26.0866 25.4073 0.7220 24.4464 -2.6429 -7.9820 3.1407 -0.5603 0.0000 0.0000 0.0000 -4.7868 -3.2045 -18.4089 -3.0192 15.3983 -1.7056 2.1655 -0.5689 13.9249 0.0000 0.0000 0.0000
-71.1965 39.3593 -2.2188 59.6125 82.6032 60.8258 0.0000 0.0000 0.0000 -7.3263 -1.5383 10.8050 -3.6577 -4.0596 34.1783 16.4617 -3.4288 12.5090 0.0000 0.0000 -0.0000 0.0000 0.0000 0.0000 -9.9828 1.7554 -8.6071 0.4149 2.1666 17.9335 0.0000 0.0000 0.0000 1.4751 -0.1986 -3.2579 0.0000 0.0000 0.0000 -20.0930 -2.6777 1.6411 -58.7357 1.5330 -23.7199 -11.5030 5.1669 46.2573 13.2344 -1.5382 -0.7764 0.0000 0.0000 0.0000 20.5592 1.1392 1.2534 57.5357 23.0537 24.1646 1.3291 22.8731 -1.4062 -8.3013 3.6500 -0.6156 0.0000 0.0000 0.0000 -7.6834 -3.9511 -17.6402 -2.9642 14.2004 2.5041 1.4666 -0.3437 10.3605 0.0000 0.0000 0.0000
-69.7455 39.2688 -2.1819 69.2980 80.7872 70.0018 0.0000 0.0000 0.0000 -9.7782 -1.6993 4.5404 -7.3314 -5.5521 46.2757 14.7808 -4.6862 24.3960 0.0000 0.0000 -0.0000 0.0000 0.0000 0.0000 -12.8151 1.6088 -6.4791 -0.8484 1.9428 17.0395 0.0000 0.0000 0.0000 2.3351 -0.4883 -2.0129 0.0000 0.0000 0.0000 -20.0293 -2.3222 1.5432 -57.9349 -2.1096 -23.6949 -10.8856 5.1647 46.6218 14.0721 -1.6469 -0.8390 0.0000 0.0000 0.0000 20.4404 0.7561 1.1454 58.8931 20.9273 21.3440 3.7982 20.3111 2.5864 -8.1509 3.0227 -0.5660 0.0000 0.0000 0.0000 -10.2009 -4.2545 -16.8031 -2.4208 13.4468 6.9462 1.9139 -0.3271 6.0801 0.0000 0.0000 0.0000
-68.2343 39.2958 -2.2225 71.2495 80.1179 71.4325 0.0000 0.0000 0.0000 -10.6753 -1.2912 -1.7958 -11.5945 -6.1151 56.2207 12.0863 -4.2247 27.8566 0.0000 0.0000 -0.0000 0.0000 0.0000 0.0000 -13.2966 1.2548 -5.1012 -2.3048 1.5946 16.2507 0.0000 0.0000 0.0000 2.1563 -0.2716 -0.7218 0.0000 0.0000 0.0000 -20.2839 -2.4717 1.5972 -57.3505 -4.9895 -22.4825 -11.2388 5.2057 44.9478 15.2096 -1.4894 -0.8888 0.0000 0.0000 0.0000 20.2580 0.6363 1.1061 59.4965 18.8778 18.7998 6.5740 17.9143 8.4452 -7.0702 2.3007 -0.4481 0.0000 0.0000 0.0000 -11.6914 -4.3313 -14.8438 -1.5716 13.0426 9.2811 3.0479 -0.4166 3.4000 0.0000 0.0000 0.0000
-66.6028 39.5326 -2.2822 77.0128 81.0075 76.7555 0.0000 0.0000 0.0000 -10.0954 -1.9004 -7.7301 -15.3034 -6.0045 62.9050 8.5717 -2.6346 23.7404 0.0000 0.0000 -0.0000 0.0000 0.0000 0.0000 -13.0100 0.2444 -4.2266 -2.0356 0.3237 14.9994 0.0000 0.0000 0.0000 0.8412 0.1894 0.2221 0.0000 0.0000 0.0000 -20.9308 -2.9339 1.7596 -56.6736 -7.5644 -20.8159 -12.0219 5.3035 41.7810 16.2308 -1.2644 -0.9206 0.0000 0.0000 0.0000 20.2075 0.9286 1.1820 59.2586 16.2290 19.2814 7.8102 16.8625 12.2862 -5.8959 2.4951 -0.3784 0.0000 0.0000 0.0000 -12.0926 -4.3050 -11.6219 -1.0733 12.0047 9.4222 3.3204 -0.3696 1.0870 0.0000 0.0000 0.0000
-65.0049 39.7212 -2.3080 89.0918 82.0095 88.3916 0.0000 0.0000 0.0000 -9.3372 -2.8312 -13.1462 -17.4872 -5.7560 66.2202 5.8514 -1.4399 17.6787 0.0000 0.0000 -0.0000 0.0000 0.0000 0.0000 -13.6564 -0.9205 -3.5472 -0.3079 -1.4529 14.3240 0.0000 0.0000 0.0000 0.2255 0.6192 1.0971 0.0000 0.0000 0.0000 -21.5730 -3.4443 1.9404 -55.8897 -11.1875 -19.3110 -12.5887 5.1544 38.8963 16.7638 -1.4679 -0.9793 0.0000 0.0000 0.0000 20.1994 1.1139 1.2310 58.6932 13.3331 20.5811 8.0155 16.8027 13.2187 -5.3911 2.7472 -0.3543 0.0000 0.0000 0.0000 -12.1625 -4.0793 -8.5502 -0.9029 9.9919 9.9929 3.4122 -0.2713 -1.8316 0.0000 0.0000 0.0000
-63.4349 39.7421 -2.3157 99.6733 82.3720 98.3422 0.0000 0.0000 0.0000 -8.9978 -2.5769 -17.8131 -17.4822 -5.6960 66.3477 4.2830 -0.9099 14.0549 0.0000 0.0000 -0.0000 0.0000 0.0000 0.0000 -14.3630 -1.7803 -3.2721 0.7888 -2.7642 14.8625 0.0000 0.0000 0.0000 0.4364 1.1449 1.4264 0.0000 0.0000 0.0000 -21.7305 -3.7371 2.0328 -55.1642 -15.7660 -17.9037 -12.9475 3.8439 36.8404 16.6597 -2.0016 -1.0462 0.0000 0.0000 0.0000 20.1657 1.0489 1.2123 58.3695 10.7221 19.6895 8.2811 16.5731 13.3073 -5.5502 2.2884 -0.3467 0.0000 0.0000 0.0000 -12.2731 -3.5905 -5.8526 -0.6785 8.0250 11.6150 4.0316 -0.2004 -4.8177 0.0000 0.0000 0.0000
-61.8120 39.7416 -2.3408 104.3230 82.8572 102.2840 0.0000 0.0000 0.0000 -8.6442 -1.2294 -21.4961 -15.8972 -6.1205 63.2481 3.3033 -0.6250 11.5722 0.0000 0.0000 -0.0000 0.0000 0.0000 0.0000 -13.9169 -2.4451 -3.4103 0.8299 -3.4777 15.7266 0.0000 0.0000 0.0000 -0.0295 1.6443 0.9103 0.0000 0.0000 0.0000 -21.5913 -3.6611 2.0022 -54.3901 -20.1386 -16.4957 -13.2971 1.8743 34.8041 16.3275 -2.3695 -1.0743 0.0000 0.0000 0.0000 20.1274 1.0364 1.2073 58.3245 8.2431 16.2781 8.9350 15.7497 15.0594 -6.2358 1.8970 -0.3751 0.0000 0.0000 0.0000 -12.0626 -2.8730 -2.6450 -0.4482 6.9304 12.3522 4.4380 -0.1108 -7.3722 0.0000 0.0000 0.0000
-60.1731 39.7637 -2.3615 108.4500 83.5782 106.0230 0.0000 0.0000 0.0000 -8.2364 -0.0680 -24.1329 -13.6349 -7.0973 56.7116 3.8610 -0.6357 8.4274 0.0000 0.0000 -0.0000 0.0000 0.0000 0.0000 -13.2306 -3.1022 -3.6580 1.2874 -4.1689 16.0048 0.0000 0.0000 0.0000 -1.0336 2.1807 0.1730 0.0000 0.0000 0.0000 -21.5879 -3.3850 1.9249 -53.5012 -23.9065 -15.2692 -13.5190 -0.1798 32.6871 16.2136 -2.4049 -1.0712 0.0000 0.0000 0.0000 20.0789 1.0925 1.2201 58.1971 5.6073 11.0744 9.8721 14.3000 19.4182 -6.9846 2.2101 -0.4380 0.0000 0.0000 0.0000 -11.4115 -2.1030 0.7407 -0.3765 6.2354 11.9922 4.3264 -0.0009 -9.7666 0.0000 0.0000 0.0000
-58.5446 39.6930 -2.3458 115.7960 83.9829 113.5140 0.0000 0.0000 0.0000 -8.0670 0.1814 -25.6114 -11.0494 -8.4420 46.7037 5.7302 -0.8714 6.3323 0.0000 0.0000 -0.0000 0.0000 0.0000 0.0000 -13.3806 -3.8205 -4.2459 2.6014 -5.1057 16.0702 0.0000 0.0000 0.0000 -1.4821 2.6942 -0.0582 0.0000 0.0000 0.0000 -21.5882 -3.1733 1.8659 -52.8157 -27.4061 -14.2818 -13.4568 -1.7440 30.8550 16.0896 -2.2986 -1.0488 0.0000 0.0000 0.0000 19.9939 0.9171 1.1701 57.8253 3.1359 4.3326 11.0314 12.0254 25.6066 -7.1163 2.6604 -0.4705 0.0000 0.0000 0.0000 -10.7173 -1.4717 3.3213 -0.3642 5.2168 12.1008 4.4788 0.1070 -12.1770 0.0000 0.0000 0.0000
-56.9080 39.5962 -2.3341 125.8620 84.1852 124.0990 0.0000 0.0000 0.0000 -7.6854 -0.1892 -25.6742 -8.1616 -9.9630 33.3331 6.4473 -1.0047 6.8078 0.0000 0.0000 -0.0000 0.0000 0.0000 0.0000 -13.3398 -4.6746 -5.5480 3.9093 -6.1093 16.6884 0.0000 0.0000 0.0000 -1.5779 3.3543 -0.1711 0.0000 0.0000 0.0000 -21.2351 -3.0163 1.8005 -52.5666 -30.5709 -13.2568 -13.2677 -3.1404 29.3182 15.5685 -2.2723 -1.0103 0.0000 0.0000 0.0000 19.8759 0.4724 1.0482 57.3909 1.2653 -3.0273 12.0025 9.0684 31.9338 -6.6302 2.5749 -0.4329 0.0000 0.0000 0.0000 -9.9478 -1.1139 5.6314 -0.2770 4.0707 11.9244 4.9827 0.1954 -13.9183 0.0000 0.0000 0.0000
-55.3114 39.6049 -2.3583 137.4830 84.4260 136.4190 0.0000 0.0000 0.0000 -6.5272 -1.4702 -24.3620 -4.8980 -10.7402 17.3770 6.4044 -1.0465 7.6287 0.0000 0.0000 -0.0000 0.0000 0.0000 0.0000 -12.4232 -5.5292 -7.1491 5.0880 -7.1310 17.7535 0.0000 0.0000 0.0000 -2.1000 4.1866 -0.6562 0.0000 0.0000 0.0000 -20.7146 -2.8137 1.7138 -52.5695 -32.9682 -10.9110 -13.1422 -5.0870 26.9158 15.0264 -2.4556 -0.9966 0.0000 0.0000 0.0000 19.7365 0.0889 0.9425 57.0713 -0.2517 -9.1648 12.2716 6.2967 36.6110 -6.2475 1.9229 -0.3763 0.0000 0.0000 0.0000 -8.8469 -0.9154 8.4242 -0.2786 3.2797 10.0514 4.9558 0.2283 -14.5951 0.0000 0.0000 0.0000
-53.7222 39.5726 -2.3622 145.6390 84.3811 145.3150 0.0000 0.0000 0.0000 -5.0455 -4.3807 -22.5791 -1.5549 -9.5900 2.5791 9.1204 -1.2935 5.3065 0.0000 0.0000 -0.0000 0.0000 0.0000 0.0000 -12.0500 -6.0839 -8.2953 6.6381 -8.1487 18.4291 0.0000 0.0000 0.0000 -2.8222 4.8701 -1.1892 0.0000 0.0000 0.0000 -20.4463 -2.7024 1.6680 -52.5696 -34.4918 -6.5768 -12.9582 -7.5273 23.0162 15.0575 -2.7524 -1.0353 0.0000 0.0000 0.0000 19.6414 0.0254 0.9227 56.8225 -1.9778 -13.3387 11.9037 4.4162 39.0465 -6.2588 1.0867 -0.3389 0.0000 0.0000 0.0000 -7.8107 -0.5589 10.9755 -0.5324 2.6629 8.4549 4.0786 0.2233 -15.0815 0.0000 0.0000 0.0000
